<svg width="571" height="412" viewBox="0 0 571 412" fill="none" xmlns="http://www.w3.org/2000/svg">
<path d="M571 345.683V317.259H523.702V348.191L571 345.683Z" fill="#E8EEF7"/>
<path d="M59.912 289.396C59.912 289.396 0.999936 257.26 13.3434 237.655C25.6869 218.049 50.1494 263.008 65.2085 247.902C80.2676 232.796 -1.8054 186.24 20.6373 163.653C43.08 141.067 130.304 258.396 153.779 234.865C177.254 211.334 76.744 156.691 76.744 156.691L115.11 132.845L174.886 97.5255L58.846 31.5103C58.846 31.5103 91.0064 21.6681 129.72 37.1343C155.63 47.4826 197.048 77.7626 222.307 52.4093C247.567 27.056 171.811 20.0822 189.283 2.54632C206.755 -14.9895 343.173 63.7924 343.173 63.7924L382.391 90.8554L390.403 346.93L571 345.682C571 350.685 569.017 355.482 565.488 359.02C561.959 362.557 557.172 364.545 552.181 364.545H547.02C545.791 364.545 544.612 365.034 543.743 365.905C542.873 366.777 542.385 367.958 542.385 369.19C542.388 370.395 542.857 371.553 543.695 372.417C544.532 373.282 545.672 373.787 546.874 373.825L552.35 373.937C557.318 374.034 562.05 376.081 565.529 379.638C569.007 383.194 570.956 387.977 570.955 392.958C570.956 395.457 570.466 397.933 569.513 400.243C568.559 402.552 567.16 404.651 565.397 406.418C563.634 408.186 561.54 409.588 559.236 410.544C556.932 411.5 554.462 411.991 551.968 411.989H397.877C397.255 411.984 396.64 411.855 396.068 411.611C395.496 411.367 394.977 411.012 394.541 410.567C394.106 410.122 393.762 409.596 393.529 409.018C393.297 408.44 393.18 407.821 393.186 407.198C393.186 405.96 393.668 404.771 394.529 403.884C395.391 402.998 396.564 402.483 397.798 402.451L404.082 402.294C405.063 402.267 405.995 401.862 406.683 401.161C407.372 400.46 407.763 399.52 407.774 398.537C407.771 397.531 407.372 396.568 406.664 395.856C405.955 395.144 404.995 394.741 403.992 394.735L277.191 394.386C276.691 394.383 276.195 394.479 275.733 394.669C275.27 394.859 274.849 395.138 274.495 395.492C274.14 395.845 273.859 396.265 273.667 396.728C273.475 397.191 273.376 397.687 273.376 398.188C273.375 399.176 273.757 400.126 274.442 400.838C275.126 401.549 276.06 401.966 277.045 402.001L289.512 402.451C290.745 402.495 291.912 403.016 292.768 403.906C293.624 404.796 294.102 405.984 294.102 407.22C294.102 408.485 293.6 409.698 292.708 410.593C291.816 411.487 290.606 411.989 289.344 411.989H128.228C127.662 411.991 127.102 411.881 126.579 411.665C126.057 411.449 125.582 411.132 125.181 410.732C124.781 410.331 124.464 409.856 124.247 409.333C124.03 408.809 123.919 408.248 123.919 407.681C123.919 407.115 124.03 406.554 124.247 406.03C124.464 405.507 124.781 405.031 125.181 404.631C125.582 404.231 126.057 403.914 126.579 403.698C127.102 403.482 127.662 403.372 128.228 403.373H147.439C148.223 403.374 148.998 403.204 149.71 402.874C150.422 402.544 151.053 402.062 151.561 401.463C152.068 400.863 152.439 400.16 152.648 399.402C152.856 398.644 152.898 397.85 152.769 397.074C152.61 396.068 152.169 395.128 151.497 394.363C150.826 393.599 149.951 393.041 148.976 392.755C142.535 390.865 125.568 388.02 89.0539 393.25C39.3096 400.37 -1.83907 414.239 7.50832 395.871C16.8557 377.503 47.9052 373.375 47.9052 373.375L59.912 289.396Z" fill="#ECF2FF"/>
<path d="M523.702 42.4883H547.356L545.381 72.6108L523.702 66.1993V42.4883Z" fill="#E8EEF7"/>
<path d="M382.391 346.548H523.702V42.4883L382.391 91.0015V346.548Z" fill="#E8EEF7"/>
<path d="M397.776 346.513H501.585V72.6094L397.776 108.243V346.513Z" fill="#F5F9FF"/>
<path d="M547.356 42.4883H547.345C534.287 42.4883 523.702 53.0991 523.702 66.1881V322.814C523.702 335.903 534.287 346.514 547.345 346.514H547.356C560.414 346.514 571 335.903 571 322.814V66.1881C571 53.0991 560.414 42.4883 547.356 42.4883Z" fill="#DAE3F0"/>
<path d="M427.232 98.9209L409.603 162.124" stroke="white" stroke-width="9" stroke-linecap="round" stroke-linejoin="round"/>
<path d="M479.927 81.6436L462.298 144.847" stroke="white" stroke-width="9" stroke-linecap="round" stroke-linejoin="round"/>
<path d="M427.232 161.652L409.603 224.856" stroke="white" stroke-width="9" stroke-linecap="round" stroke-linejoin="round"/>
<path d="M479.927 144.374L462.298 207.577" stroke="white" stroke-width="9" stroke-linecap="round" stroke-linejoin="round"/>
<path d="M427.232 222.92L409.603 286.123" stroke="white" stroke-width="9" stroke-linecap="round" stroke-linejoin="round"/>
<path d="M479.927 213.662L462.298 282.591" stroke="white" stroke-width="9" stroke-linecap="round" stroke-linejoin="round"/>
<path d="M427.232 292.502L409.603 345.278" stroke="white" stroke-width="9" stroke-linecap="round" stroke-linejoin="round"/>
<path d="M479.927 288.171L462.298 343.467" stroke="white" stroke-width="9" stroke-linecap="round" stroke-linejoin="round"/>
<path d="M397.776 168.805L502.011 136.804" stroke="#E8EEF7" stroke-width="5" stroke-miterlimit="10"/>
<path d="M397.776 225.934L501.652 204.934" stroke="#E8EEF7" stroke-width="5" stroke-miterlimit="10"/>
<path d="M397.776 288.17L501.585 285.64" stroke="#E8EEF7" stroke-width="5" stroke-miterlimit="10"/>
<path d="M443.996 92.3184L442.021 346.751" stroke="#E8EEF7" stroke-width="5" stroke-miterlimit="10"/>
<path d="M447.149 277.011C447.149 277.011 443.446 293.321 438.778 307.943C434.11 322.566 425.122 355.613 435.412 378.806H437.836C437.836 378.806 435.367 359.684 442.021 342.419C448.676 325.153 456.519 321.801 457.282 305.671C458.045 289.541 447.149 277.011 447.149 277.011Z" fill="#232323"/>
<path d="M472.533 313.007C472.061 343.186 464.868 378.831 464.868 378.831H462.905C462.905 378.831 456.542 314.458 450.404 287.429C449.955 285.416 449.495 283.605 449.046 282.052C448.934 281.659 448.822 281.287 448.71 280.928C448.321 279.577 447.799 278.27 447.15 277.024H460.515C461.798 277.748 462.939 278.701 463.881 279.836C464.094 280.073 464.319 280.331 464.543 280.613L464.767 280.894C466.057 282.565 467.149 284.381 468.022 286.304C468.291 286.889 468.56 287.519 468.83 288.183C471.029 293.593 472.712 301.579 472.533 313.007Z" fill="#474747"/>
<path d="M464.386 258.604C475.454 256.815 482.25 241.832 479.564 225.138C476.879 208.444 465.729 196.361 454.661 198.15C443.593 199.939 436.798 214.923 439.483 231.617C442.169 248.31 453.318 260.393 464.386 258.604Z" fill="#232323"/>
<path d="M438.7 267.642C438.7 267.642 433.348 282.827 425.874 291.071C418.401 299.316 431.855 294.075 435.413 289.013C438.97 283.951 443.918 270.544 443.918 270.544L438.7 267.642Z" fill="#FFB171"/>
<path d="M464.868 267.17L469.727 279.453L480.668 290.51C480.668 290.51 480.107 297.45 484.786 297.641C489.465 297.832 488.994 293.322 485.527 289.486C482.059 285.65 475.338 276.922 475.338 276.922L471.32 265.111L464.868 267.17Z" fill="#FFB171"/>
<path d="M459.538 278.744C460.561 280.555 461.389 282.471 462.007 284.458C462.366 285.437 462.635 286.438 462.927 287.439C463.218 288.44 463.488 289.441 463.723 290.453C464.722 294.492 465.373 298.608 465.967 302.725C467.004 310.974 467.614 319.271 467.796 327.584C467.796 331.734 467.852 335.885 467.796 340.035L467.628 346.267C467.628 348.336 467.538 350.417 467.381 352.487C467.123 356.637 466.932 360.777 466.607 364.916L465.485 377.289L466.091 364.86C466.315 360.72 466.394 356.57 466.562 352.431C466.73 348.291 466.719 344.152 466.809 340.001C466.899 335.851 466.809 331.723 466.708 327.629C466.54 319.35 466.068 311.071 465.148 302.883C464.666 298.777 464.105 294.671 463.218 290.633C462.49 286.532 461.253 282.538 459.538 278.744Z" fill="#232323"/>
<path d="M442.021 250.963L438.7 267.644L443.761 270.973L447.935 260.962L442.021 250.963Z" fill="#2E59B9"/>
<path d="M468.874 288.171C468.515 287.743 462.276 280.376 454.085 281.422C449.686 281.962 450.415 287.485 450.415 287.485C449.966 285.471 449.506 283.66 449.058 282.108C448.945 281.714 448.833 281.343 448.721 280.983C448.332 279.633 447.81 278.326 447.161 277.08H460.515C461.798 277.804 462.939 278.757 463.881 279.892C464.094 280.128 464.319 280.387 464.543 280.668L464.767 280.949C466.057 282.621 467.149 284.436 468.022 286.36C468.369 286.843 468.605 287.507 468.874 288.171Z" fill="#232323"/>
<path d="M450.651 232.626C448.012 234.474 445.852 236.928 444.351 239.783C442.85 242.637 442.051 245.81 442.021 249.037C442.021 260.004 447.15 252.693 447.15 277.011C449.028 278.582 451.397 279.443 453.843 279.443C456.29 279.443 458.658 278.582 460.537 277.011C460.537 277.011 457.529 267.596 462.298 259.16L465.283 268.215L471.601 265.965C470.617 259.984 470.133 253.93 470.153 247.867C470.434 239.994 462.714 234.043 459.841 233.807C456.968 233.571 450.651 232.626 450.651 232.626Z" fill="#5086FE"/>
<path d="M460.514 236.002C460.514 238.622 457.91 240.737 454.679 240.737C451.447 240.737 448.855 238.622 448.855 236.002C448.932 234.943 449.351 233.939 450.047 233.139C450.743 232.34 451.68 231.789 452.715 231.57V224.979H459.818V233.786C460.26 234.441 460.502 235.211 460.514 236.002Z" fill="#FFB171"/>
<path d="M465.451 377.312H454.23V380.36H465.451V377.312Z" fill="#232323"/>
<path d="M437.588 377.312H426.368V380.36H437.588V377.312Z" fill="#232323"/>
<path d="M491.608 329.586L500.406 368.763C500.617 369.696 501.139 370.53 501.885 371.127C502.632 371.724 503.558 372.048 504.513 372.048H519.493C520.122 372.048 520.742 371.908 521.309 371.637C521.876 371.366 522.376 370.971 522.771 370.481C523.166 369.992 523.446 369.419 523.592 368.807C523.737 368.194 523.744 367.557 523.612 366.941L517.474 338.483C516.938 335.969 515.558 333.714 513.565 332.095C511.573 330.477 509.087 329.591 506.522 329.586H491.608Z" fill="#5086FE"/>
<path d="M504.95 380.348C506.772 380.348 508.249 378.868 508.249 377.041C508.249 375.215 506.772 373.734 504.95 373.734C503.128 373.734 501.651 375.215 501.651 377.041C501.651 378.868 503.128 380.348 504.95 380.348Z" fill="#232323"/>
<path d="M519.853 380.348C521.674 380.348 523.151 378.868 523.151 377.041C523.151 375.215 521.674 373.734 519.853 373.734C518.031 373.734 516.554 375.215 516.554 377.041C516.554 378.868 518.031 380.348 519.853 380.348Z" fill="#232323"/>
<path d="M484.079 295.38L500.081 367.109C500.374 368.425 501.107 369.602 502.158 370.444C503.208 371.287 504.514 371.745 505.86 371.743H521.11" stroke="#232323" stroke-width="2" stroke-linecap="round" stroke-linejoin="round"/>
<path d="M459.84 224.979V228.004C458.323 229.491 456.285 230.323 454.163 230.321C453.688 230.322 453.215 230.277 452.749 230.186V224.979H459.84Z" fill="#FF621F"/>
<path d="M450.101 208.106H458.27C459.35 208.106 460.386 208.536 461.15 209.302C461.914 210.068 462.343 211.106 462.343 212.189V220.951C462.343 223.114 461.486 225.188 459.96 226.718C458.435 228.247 456.365 229.106 454.208 229.106C452.05 229.106 449.981 228.247 448.455 226.718C446.929 225.188 446.072 223.114 446.072 220.951V212.155C446.072 211.072 446.501 210.034 447.265 209.268C448.029 208.502 449.065 208.072 450.146 208.072L450.101 208.106Z" fill="#FFB171"/>
<path d="M462.758 223.47C464.537 223.47 465.979 222.025 465.979 220.242C465.979 218.459 464.537 217.014 462.758 217.014C460.98 217.014 459.538 218.459 459.538 220.242C459.538 222.025 460.98 223.47 462.758 223.47Z" fill="#FFB171"/>
<path d="M450.751 205.159C448.698 205.395 444.704 206.711 444.614 213.348C444.614 213.545 444.658 213.741 444.744 213.919C444.83 214.097 444.954 214.253 445.108 214.376C445.262 214.499 445.442 214.586 445.634 214.63C445.827 214.674 446.026 214.674 446.218 214.63C448.653 214.045 452.951 212.189 452.165 206.284C452.12 205.95 451.948 205.646 451.684 205.436C451.421 205.226 451.086 205.127 450.751 205.159Z" fill="#2E59B9"/>
<path d="M447.778 204.877C448.598 208.465 452.121 218.465 466.036 217.981C466.202 217.974 466.366 217.931 466.515 217.856C466.664 217.781 466.796 217.675 466.902 217.546C467.008 217.416 467.085 217.266 467.129 217.105C467.173 216.943 467.183 216.774 467.158 216.609C466.541 212.773 463.511 201.806 448.8 203.449C448.631 203.457 448.467 203.504 448.32 203.585C448.172 203.666 448.044 203.779 447.946 203.917C447.848 204.054 447.782 204.211 447.753 204.378C447.724 204.544 447.733 204.715 447.778 204.877Z" fill="#5086FE"/>
<path d="M449.035 245.336C450.082 245.336 450.931 244.485 450.931 243.435C450.931 242.385 450.082 241.534 449.035 241.534C447.988 241.534 447.139 242.385 447.139 243.435C447.139 244.485 447.988 245.336 449.035 245.336Z" fill="#ECF3FF"/>
<path d="M446.679 249.69C447.373 249.69 447.935 249.125 447.935 248.43C447.935 247.734 447.373 247.17 446.679 247.17C445.985 247.17 445.422 247.734 445.422 248.43C445.422 249.125 445.985 249.69 446.679 249.69Z" fill="#ECF3FF"/>
<path d="M452.738 287.698C451.375 295.283 449.622 302.791 447.486 310.195C445.422 317.651 442.664 324.896 439.25 331.836C435.771 338.585 434.829 346.391 434.559 354.006C434.432 357.847 434.507 361.691 434.784 365.524C435.016 369.356 435.412 373.18 435.973 376.997C434.429 369.429 433.677 361.72 433.729 353.995C433.83 346.301 434.761 338.371 438.296 331.307C441.714 324.444 444.523 317.293 446.69 309.936C447.812 306.269 448.934 302.568 449.91 298.856C450.887 295.145 451.84 291.444 452.738 287.698Z" fill="#474747"/>
<path d="M334.42 291.083V313.838C334.432 315.638 334 317.413 333.162 319.004C332.324 320.596 331.107 321.955 329.618 322.961C321.953 328.045 319.35 336.076 318.475 341.374C318.169 343.142 318.026 344.934 318.048 346.728C318.712 353.143 317.388 359.608 314.256 365.242C313.34 366.905 311.996 368.291 310.364 369.255C308.731 370.218 306.87 370.724 304.975 370.72H292.374C290.491 370.721 288.643 370.218 287.019 369.263C285.396 368.307 284.056 366.935 283.139 365.287L280.692 360.912C280.216 360.053 279.484 359.365 278.6 358.941C277.715 358.518 276.721 358.381 275.755 358.55L275.026 358.673L242.405 364.354C242.809 371.238 239.723 376.918 236.795 380.686C235.554 382.263 233.972 383.537 232.168 384.41C230.364 385.283 228.385 385.733 226.381 385.725H203.938C202.133 385.724 200.365 385.209 198.841 384.239C197.317 383.269 196.1 381.885 195.332 380.247L189.283 367.346H187.039L82.9161 365.287L75.6223 365.13C67.7673 388.751 34.4736 387.626 25.1262 368.887C21.67 361.935 20.099 350.89 20.0766 339.405C20.0301 330.938 20.846 322.488 22.5116 314.187C24.4866 304.84 27.5837 297.619 31.4887 295.594C42.71 289.779 79.359 273.66 79.359 273.66C107.794 238.791 137.34 233.167 137.34 233.167C137.34 233.167 153.757 228.353 211.726 228.353C269.696 228.353 277.932 242.975 277.932 242.975L311.506 242.21C312.142 242.198 312.768 242.376 313.302 242.723C313.836 243.07 314.254 243.569 314.502 244.156L316.107 247.924L334.42 291.083Z" fill="#313030"/>
<path d="M228.232 248.789L225.988 273.535C225.877 274.847 225.385 276.097 224.574 277.133C223.762 278.168 222.666 278.943 221.421 279.361L161.746 299.608C161.539 299.678 161.314 299.668 161.114 299.58C160.914 299.492 160.754 299.333 160.666 299.133C160.577 298.933 160.566 298.707 160.635 298.499C160.704 298.292 160.848 298.117 161.039 298.011C184.604 285.098 218.593 274.986 218.593 274.986L228.232 248.789Z" fill="#525252"/>
<path d="M51.8216 298.699C51.0615 298.934 50.409 299.431 49.9797 300.102C49.5504 300.773 49.3721 301.575 49.4763 302.366C50.273 309.407 53.0447 328.416 59.9795 331.948C68.519 336.301 131.123 335.491 135.297 333.152C139.472 330.812 159.345 305.459 155.63 301.657C151.916 297.855 136.004 294.582 96.7519 294.582C68.8219 294.616 56.5458 297.203 51.8216 298.699Z" fill="#97ADDB"/>
<path d="M168.759 301.308C168.759 301.308 216.192 289.7 239.095 285.336L240.149 287.383C240.149 287.383 206.059 314.547 180.676 321.319C155.293 328.09 168.759 301.308 168.759 301.308Z" fill="#202020"/>
<path d="M38.5913 364.184C38.5913 364.184 38.5913 339.899 71.3464 339.899C104.102 339.899 119.228 339.303 119.228 339.303C119.228 339.303 167.267 339.145 173.248 365.263L38.5913 364.184Z" fill="#202020"/>
<path d="M228.232 248.802L223.081 271.681C222.859 272.688 222.283 273.582 221.46 274.201C220.637 274.82 219.62 275.123 218.593 275.055C196.072 273.615 175.57 273.064 157.807 272.997C151.949 272.997 146.402 273.023 141.166 273.076C133.064 273.177 125.736 273.379 119.284 273.627C110.576 273.953 103.473 274.358 98.2215 274.752C97.3679 274.798 96.5199 274.587 95.7866 274.147C95.0533 273.707 94.4681 273.056 94.1062 272.28C93.7443 271.504 93.6222 270.637 93.7557 269.79C93.8891 268.944 94.272 268.157 94.8551 267.53C113.202 248.116 124.031 244.697 125.804 244.235L126.264 244.145C139.659 242.373 153.149 241.411 166.66 241.266C171.452 241.187 176.143 241.198 180.665 241.266C200.291 241.536 216.741 242.919 224.507 243.684C225.098 243.749 225.669 243.936 226.184 244.235C226.699 244.534 227.146 244.937 227.497 245.418C227.848 245.9 228.094 246.45 228.221 247.033C228.347 247.615 228.351 248.218 228.232 248.802Z" fill="#C2D5FF"/>
<path d="M143.735 294.627C149.245 295.233 154.809 294.176 159.715 291.59C169.466 286.505 181.854 278.351 161.027 278.351C137.463 278.351 103.137 278.812 89.065 279.003C84.8549 279.067 80.6972 279.949 76.8225 281.601L50.9348 292.636C50.6511 292.749 50.4186 292.962 50.2816 293.235C50.1445 293.509 50.1123 293.823 50.1913 294.119C50.2702 294.414 50.4546 294.671 50.7096 294.839C50.9646 295.007 51.2724 295.076 51.5744 295.032C82.1759 291.327 113.103 291.192 143.735 294.627Z" fill="#525252"/>
<path d="M208.505 300.51C200.134 320.475 171.475 323.985 159.984 324.57C159.275 324.614 158.577 324.375 158.043 323.906C157.553 323.497 157.221 322.93 157.102 322.302C156.983 321.674 157.086 321.024 157.392 320.464L167.02 302.681C167.204 302.347 167.452 302.053 167.751 301.818C168.05 301.582 168.393 301.409 168.759 301.308C188.172 296.146 200.55 296.179 206.16 296.652C206.763 296.704 207.332 296.952 207.782 297.358C208.231 297.764 208.537 298.306 208.651 298.901C208.771 299.44 208.72 300.002 208.505 300.51Z" fill="#202020"/>
<path d="M208.505 300.51C200.134 320.475 171.475 323.985 159.984 324.57C159.275 324.614 158.577 324.375 158.043 323.906C157.904 323.259 158.003 322.584 158.323 322.005L167.94 304.233C168.121 303.898 168.369 303.603 168.668 303.367C168.967 303.131 169.311 302.959 169.679 302.861C189.092 297.687 201.469 297.732 207.08 298.204C207.66 298.246 208.211 298.475 208.651 298.856C208.781 299.409 208.73 299.989 208.505 300.51Z" fill="#C2D5FF"/>
<path d="M46.3566 322.759C46.277 322.929 46.1751 323.088 46.0536 323.231C45.8188 323.542 45.5238 323.802 45.1863 323.995C44.8489 324.188 44.4759 324.311 44.0899 324.356C38.7148 324.975 27.2578 324.907 22.4775 314.165C22.9488 311.916 23.4762 309.869 24.0597 307.934C24.531 306.393 25.036 304.942 25.5859 303.626C25.613 303.576 25.6355 303.523 25.6532 303.468C27.2915 299.532 29.2328 296.72 31.4546 295.595L43.1697 301.804C43.5893 302.026 43.9491 302.347 44.2187 302.738C44.4883 303.13 44.6596 303.581 44.7183 304.053L46.6595 321.094C46.7231 321.667 46.6177 322.246 46.3566 322.759Z" fill="#202020"/>
<path d="M46.0536 323.231C45.8188 323.541 45.5238 323.801 45.1863 323.994C44.8489 324.187 44.4759 324.31 44.0899 324.356C38.7148 324.974 27.2578 324.907 22.4775 314.165C22.9488 311.915 23.4762 309.868 24.0597 307.933C24.531 306.392 25.036 304.941 25.5859 303.625C25.613 303.575 25.6355 303.522 25.6532 303.468C27.1681 300.24 28.4922 297.844 29.9622 296.629L42.5862 303.13C43.0058 303.353 43.3656 303.673 43.6352 304.065C43.9048 304.457 44.0761 304.908 44.1347 305.38L46.076 322.421C46.1054 322.691 46.0978 322.963 46.0536 323.231Z" fill="#C2D5FF"/>
<path d="M54.8963 300.835C54.203 301.003 53.5937 301.416 53.1812 302C52.7686 302.583 52.5806 303.296 52.652 304.007C53.4039 310.126 56.0185 326.616 62.5268 329.687C70.5501 333.466 129.361 332.757 133.277 330.721C137.194 328.686 155.877 306.707 152.354 303.422C148.83 300.138 133.917 297.292 97.0325 297.292C70.8755 297.292 59.3624 299.53 54.8963 300.835Z" fill="#5086FE"/>
<path d="M100.97 291.735C103.84 291.735 106.166 289.403 106.166 286.527C106.166 283.651 103.84 281.319 100.97 281.319C98.1013 281.319 95.7754 283.651 95.7754 286.527C95.7754 289.403 98.1013 291.735 100.97 291.735Z" fill="#5086FE"/>
<path d="M117.915 352.16L73.3778 351.271C71.8349 351.233 70.3686 350.59 69.2942 349.479C68.2198 348.368 67.6231 346.879 67.6324 345.332C67.6324 343.771 68.2481 342.273 69.3453 341.165C70.4425 340.056 71.9323 339.428 73.49 339.416L117.994 339.157C118.77 339.16 119.538 339.316 120.254 339.617C120.969 339.918 121.619 340.357 122.165 340.91C122.711 341.463 123.143 342.118 123.436 342.838C123.73 343.558 123.878 344.33 123.874 345.107V346.232C123.877 347.015 123.724 347.791 123.426 348.515C123.127 349.238 122.687 349.895 122.133 350.447C121.578 350.998 120.92 351.434 120.196 351.728C119.472 352.022 118.696 352.169 117.915 352.16Z" fill="#2E59B9"/>
<path d="M255.017 242.976C259.779 250.603 263.954 258.582 267.507 266.844C271.116 275.105 274.117 283.62 276.484 292.321C277.673 296.674 278.728 301.072 279.525 305.515C279.974 307.765 280.277 310.014 280.647 312.197C281.017 314.379 281.231 316.696 281.388 318.945C282.218 327.976 282.049 337.071 280.883 346.065L280.782 346.796L280.052 346.953C269.403 349.203 258.732 351.565 248.083 353.702L246.803 353.961V352.656C246.635 347.133 246.31 341.588 245.906 336.065C245.502 330.542 244.963 325.019 244.346 319.508C243.729 313.996 242.988 308.507 242.102 303.029C241.215 297.552 240.306 292.096 239.24 286.663V286.573C238.648 279.387 238.43 272.175 238.589 264.966C238.677 261.372 238.966 257.785 239.453 254.224C239.711 252.428 240.086 250.65 240.576 248.903C241.022 247.132 241.782 245.456 242.82 243.954V243.875H242.921L255.017 242.976ZM255.017 242.976L243.078 244.348L243.235 244.258C242.276 245.737 241.585 247.375 241.193 249.095C240.766 250.823 240.451 252.578 240.25 254.347C239.863 257.9 239.672 261.471 239.678 265.044C239.653 272.201 240.005 279.353 240.733 286.472V286.393C241.911 291.837 243.033 297.293 243.931 302.793C244.829 308.293 245.603 313.805 246.265 319.339C246.927 324.873 247.477 330.407 247.926 335.964C248.374 341.52 248.734 347.066 248.936 352.656L247.611 351.61C258.26 349.293 268.932 347.111 279.603 344.861L278.784 345.738C279.975 336.903 280.197 327.964 279.446 319.08C279.087 314.634 278.534 310.206 277.786 305.796C277.067 301.387 276.125 297.012 275.025 292.681C272.801 284.005 270.004 275.486 266.654 267.182C263.341 258.851 259.453 250.763 255.017 242.976Z" fill="#202020"/>
<path d="M317.487 283.761H281.377C280.789 283.763 280.213 283.587 279.727 283.256C279.24 282.925 278.865 282.454 278.65 281.905L267.945 254.988C267.767 254.541 267.701 254.056 267.753 253.577C267.805 253.098 267.974 252.639 268.244 252.241C268.515 251.842 268.878 251.516 269.303 251.291C269.728 251.066 270.202 250.949 270.683 250.95H306.445C307.03 250.949 307.602 251.123 308.088 251.45C308.573 251.776 308.951 252.241 309.172 252.784L320.247 279.689C320.433 280.14 320.505 280.631 320.455 281.116C320.405 281.602 320.236 282.067 319.962 282.471C319.688 282.874 319.319 283.204 318.887 283.429C318.455 283.654 317.974 283.768 317.487 283.761Z" fill="#C2D5FF"/>
<path d="M325.734 293.052C324.816 293.484 323.847 293.797 322.85 293.986C321.952 294.154 321.1 294.256 320.337 294.334C319.827 294.437 319.308 294.482 318.788 294.469C318.665 294.469 318.44 294.537 318.317 294.931C318.183 295.413 318.093 295.906 318.048 296.404C317.493 296.178 317.023 295.785 316.701 295.279C316.493 294.946 316.37 294.566 316.345 294.173C316.319 293.78 316.392 293.387 316.555 293.03C316.91 292.314 317.506 291.748 318.238 291.432C318.785 291.183 319.369 291.024 319.966 290.96C321.013 290.854 322.069 290.976 323.063 291.32C324.083 291.665 325.001 292.261 325.734 293.052Z" fill="#202020"/>
<path d="M20.1665 344.904C20.211 345.195 20.211 345.491 20.1665 345.782C20.1922 346.074 20.2681 346.359 20.3909 346.625C20.5817 347.177 20.7837 347.75 21.0081 348.279C21.4561 349.363 21.9618 350.421 22.523 351.451C23.6597 353.497 25.0552 355.387 26.6749 357.075C28.2953 358.742 30.1472 360.167 32.1733 361.304C34.171 362.438 36.3386 363.239 38.592 363.678L105.494 364.431C116.648 364.521 127.802 364.69 138.944 364.859L172.395 365.41L189.104 365.713C194.715 365.713 200.258 365.713 205.779 365.657C208.539 365.657 211.3 365.511 213.959 365.219C216.619 364.926 219.267 364.352 220.905 362.969C222.544 361.585 223.15 359.145 223.329 356.49C223.509 353.835 223.531 351.046 223.531 348.268C223.531 342.779 223.161 336.783 225.697 331.092C226.348 329.614 227.304 328.292 228.502 327.211C229.134 326.643 229.849 326.176 230.623 325.828C231.424 325.453 232.288 325.236 233.17 325.186C234.928 325.093 236.662 325.618 238.074 326.671C239.132 327.436 239.968 328.469 240.498 329.663L240.745 330.248L240.924 330.766C242.728 336.204 243.804 341.859 244.122 347.582C244.458 353.244 244.281 358.925 243.595 364.555L242.203 363.25L276.866 357.705L276.193 358.267L280.255 346.727L280.423 346.265H280.883L299.466 346.468L318.048 346.738L299.466 347.199L280.883 347.582L281.512 347.132L277.809 358.83L277.652 359.313L277.147 359.403L242.607 365.579L241.07 365.848L241.227 364.274C242.349 353.318 241.698 342.036 238.119 331.755L237.95 331.283L237.782 330.912C237.669 330.67 237.538 330.437 237.389 330.214C237.086 329.774 236.706 329.393 236.267 329.09C235.416 328.462 234.371 328.155 233.316 328.223C232.252 328.32 231.254 328.781 230.488 329.528C229.62 330.335 228.932 331.316 228.468 332.408C227.482 334.827 226.92 337.4 226.808 340.012C226.639 342.666 226.729 345.456 226.729 348.256C226.729 351.057 226.729 353.88 226.538 356.794C226.44 358.32 226.165 359.83 225.719 361.293C225.225 362.926 224.284 364.387 223.004 365.511C221.737 366.557 220.265 367.324 218.683 367.761C217.248 368.156 215.785 368.442 214.307 368.616C211.434 368.942 208.618 369.043 205.801 369.11C200.191 369.2 194.58 369.11 188.969 369.11L172.227 368.75L138.787 367.974C127.633 367.704 116.491 367.434 105.348 367.086L71.8969 366.073C60.7541 365.713 49.6113 365.241 38.4685 364.78H38.4012C36.0855 364.207 33.8767 363.265 31.8592 361.99C29.8145 360.767 27.9585 359.251 26.3495 357.491C24.7558 355.724 23.4082 353.749 22.3434 351.62C21.8187 350.561 21.3578 349.472 20.9632 348.358C20.75 347.806 20.5705 347.233 20.4022 346.67C20.2886 346.395 20.2241 346.102 20.2114 345.804C20.2498 345.504 20.2346 345.199 20.1665 344.904Z" fill="#202020"/>
<path d="M263.905 300.07C264.389 299.411 265.014 298.869 265.734 298.484C266.969 297.826 268.394 297.623 269.762 297.911C270.58 298.078 271.348 298.432 272.006 298.945C271.532 299.616 270.905 300.163 270.178 300.543C269.57 300.871 268.909 301.088 268.225 301.184C267.538 301.275 266.839 301.248 266.161 301.105C265.341 300.935 264.569 300.581 263.905 300.07Z" fill="#202020"/>
<path d="M249.082 287.371C248.773 287.41 248.459 287.386 248.16 287.301C247.86 287.215 247.581 287.07 247.339 286.873C247.097 286.677 246.897 286.434 246.751 286.158C246.605 285.882 246.516 285.579 246.49 285.268C245.839 277.394 244.246 252.727 250.069 251.917C255.893 251.108 264.927 274.076 267.956 282.141C268.08 282.469 268.127 282.82 268.095 283.169C268.062 283.518 267.951 283.855 267.769 284.154C267.587 284.453 267.34 284.707 267.046 284.896C266.752 285.085 266.418 285.205 266.071 285.246L249.082 287.371Z" fill="#97ADDB"/>
<path d="M259.473 262.67C251.797 262.67 245.581 266.449 245.581 271.106C245.611 271.943 245.809 272.764 246.164 273.522C246.518 274.28 247.022 274.958 247.645 275.515C247.645 275.515 240.127 275.189 237.456 279.542C234.786 283.895 237.456 289.384 240.262 289.384C243.067 289.384 245.592 289.812 245.592 283.479C245.592 277.146 255.029 279.092 255.029 279.092C256.506 279.397 258.01 279.547 259.518 279.542C267.182 279.542 273.398 275.774 273.398 271.106C273.398 266.438 267.137 262.67 259.473 262.67Z" fill="#202020"/>
<path d="M228.333 248.451L228.255 248.789C228.255 248.789 149.918 246.078 138.136 247.855C126.353 249.632 119.385 273.58 119.385 273.58C110.24 273.928 102.867 274.356 97.5482 274.705C96.7421 274.77 95.9353 274.587 95.2356 274.181C94.5359 273.774 93.9767 273.163 93.6327 272.429C93.2886 271.696 93.1762 270.874 93.3105 270.075C93.4447 269.275 93.8192 268.536 94.3838 267.956C114.807 246.179 126.118 244.098 126.118 244.098C165.595 238.553 210.772 242.231 224.866 243.626C225.423 243.684 225.962 243.859 226.447 244.141C226.931 244.422 227.351 244.804 227.679 245.259C228.006 245.715 228.234 246.235 228.347 246.785C228.459 247.335 228.455 247.903 228.333 248.451Z" fill="#97ADDB"/>
<path d="M298.927 283.761H281.377C280.789 283.763 280.213 283.587 279.727 283.256C279.24 282.925 278.865 282.454 278.65 281.905L267.945 254.988C267.767 254.541 267.701 254.056 267.753 253.577C267.805 253.098 267.974 252.639 268.244 252.241C268.515 251.842 268.878 251.516 269.303 251.291C269.728 251.066 270.202 250.949 270.683 250.95H281.904C281.904 250.95 293.731 268.767 298.927 283.761Z" fill="#97ADDB"/>
<path d="M242.405 365.58C242.388 365.846 242.388 366.112 242.405 366.378C242.663 373.127 239.644 378.616 236.794 382.317C235.938 383.416 234.912 384.369 233.753 385.14C231.574 386.601 229.013 387.384 226.392 387.39H203.702C201.953 387.388 200.241 386.888 198.765 385.948C197.289 385.008 196.109 383.667 195.365 382.081L189.305 369.156C189.297 369.14 189.293 369.122 189.295 369.104C189.296 369.086 189.302 369.068 189.312 369.053C189.323 369.038 189.337 369.026 189.353 369.019C189.37 369.011 189.388 369.008 189.406 369.01H200.628C221.05 369.01 225.315 367.582 225.831 356.547C225.831 356.547 225.898 349.686 225.898 345.018C225.898 334.186 228.142 330.114 231.352 328.742C232.098 328.444 232.897 328.299 233.7 328.317C234.504 328.334 235.296 328.514 236.028 328.844C236.761 329.175 237.42 329.65 237.966 330.241C238.512 330.832 238.934 331.527 239.207 332.285C241.238 337.662 244.189 348.966 242.405 365.58Z" fill="#232323"/>
<path d="M75.6221 366.163C67.7672 389.784 34.4734 388.659 25.126 369.919C22.3544 364.352 20.9293 355.522 20.4019 346.591C25.2719 362.552 38.5917 364.847 38.5917 364.847L75.6221 366.163Z" fill="#232323"/>
<path d="M314.255 365.276C313.935 365.858 313.559 366.408 313.133 366.918C312.14 368.114 310.896 369.076 309.49 369.735C308.084 370.394 306.55 370.734 304.998 370.731H292.374C290.491 370.732 288.643 370.229 287.019 369.274C285.396 368.318 284.056 366.946 283.139 365.298L280.692 360.923C279.929 359.539 279.177 359.404 277.651 359.269L281.422 347.582L304.493 347.256L318.048 346.75C318.714 353.169 317.39 359.638 314.255 365.276Z" fill="#232323"/>
<path d="M242.394 366.029C242.57 371.931 240.681 377.71 237.052 382.362C236.243 383.451 235.266 384.404 234.157 385.185C223.519 390.651 225.921 357.886 225.865 356.558C225.999 353.51 225.932 349.742 225.932 345.074C225.932 334.242 228.064 330.316 231.071 328.955C234.079 327.594 238.32 329.169 239.431 332.33C241.328 337.706 244.178 349.146 242.394 366.029Z" fill="#525252"/>
<path d="M314.255 365.276C313.934 365.859 313.558 366.408 313.133 366.918C301.463 378.864 304.347 348.921 304.515 347.257L308.375 347.11L313.402 346.919L318.07 346.739C318.731 353.165 317.399 359.638 314.255 365.276Z" fill="#525252"/>
<path d="M233.843 375.365C235.262 375.365 236.412 367.519 236.412 357.84C236.412 348.161 235.262 340.315 233.843 340.315C232.424 340.315 231.273 348.161 231.273 357.84C231.273 367.519 232.424 375.365 233.843 375.365Z" fill="#8A8A8A"/>
<path d="M38.7935 364.826C38.7935 364.826 45.1784 373.375 55.5582 373.454C58.4654 373.549 61.3508 372.92 63.9556 371.622C66.5604 370.325 68.8031 368.399 70.4825 366.019L38.7935 364.826Z" fill="#525252"/>
<path d="M313.379 346.94C313.155 355.05 312.111 361.169 310.855 361.169C309.598 361.169 308.611 355.14 308.353 347.132L313.379 346.94Z" fill="#8A8A8A"/>
<path d="M59.2949 308.213C65.7472 307.572 72.1995 307.235 78.6517 307.01C81.8835 306.864 85.104 306.83 88.3358 306.751L98.0086 306.661L107.693 306.74C110.924 306.83 114.145 306.852 117.377 306.999C123.829 307.224 130.281 307.561 136.733 308.213C130.281 308.855 123.829 309.192 117.377 309.417C114.145 309.563 110.924 309.597 107.693 309.676L98.0086 309.766L88.3358 309.676C85.104 309.597 81.8835 309.563 78.6517 309.417C72.2556 309.158 65.7472 308.821 59.2949 308.213Z" fill="#97ADDB"/>
<path d="M59.2949 316.358C65.7472 315.717 72.1995 315.379 78.6517 315.154C81.8835 315.008 85.104 314.974 88.3358 314.896L98.0086 314.806L107.693 314.884C110.924 314.974 114.145 315.008 117.377 315.143C123.829 315.379 130.281 315.717 136.733 316.358C130.281 316.999 123.829 317.337 117.377 317.573C114.145 317.719 110.924 317.741 107.693 317.831L98.0086 317.91L88.3358 317.82C85.104 317.741 81.8835 317.708 78.6517 317.561C72.2556 317.337 65.7472 316.999 59.2949 316.358Z" fill="#97ADDB"/>
<path d="M64.4565 324.535C69.7755 323.894 75.0832 323.556 80.4021 323.331C83.0615 323.185 85.7098 323.162 88.3692 323.072L96.3364 322.982L104.315 323.072C106.963 323.151 109.622 323.185 112.282 323.331C117.601 323.556 122.909 323.894 128.227 324.535C122.909 325.187 117.601 325.524 112.282 325.749C109.622 325.896 106.963 325.918 104.315 326.008L96.3364 326.087L88.3692 326.008C85.7098 325.918 83.0615 325.884 80.4021 325.749C75.0832 325.513 69.7755 325.176 64.4565 324.535Z" fill="#97ADDB"/>
<path d="M96.2802 300.42C96.3412 300.271 96.4588 300.152 96.6072 300.09C96.7555 300.028 96.9225 300.027 97.0713 300.088C97.2201 300.15 97.3385 300.267 97.4006 300.416C97.4627 300.565 97.4633 300.732 97.4023 300.881C97.032 302.782 96.6954 304.661 96.3924 306.505C95.9212 309.407 95.506 312.31 95.2704 315.223C95.0348 318.136 94.743 321.038 94.6532 323.985C94.5298 325.92 94.5298 327.854 94.4849 329.823C94.4671 329.949 94.4094 330.066 94.3203 330.157C94.2313 330.248 94.1156 330.308 93.9901 330.328C93.8647 330.348 93.7361 330.327 93.6232 330.269C93.5104 330.21 93.4191 330.117 93.3629 330.003C92.7592 328.071 92.3422 326.086 92.1174 324.075C91.7472 321.036 91.7246 317.964 92.0501 314.919C92.3595 311.857 93.0068 308.839 93.98 305.921C94.5899 304.025 95.3594 302.185 96.2802 300.42Z" fill="#97ADDB"/>
<path opacity="0.3" d="M180.654 241.174L157.863 272.962C152.006 272.962 134.231 273.378 129.002 273.445L153.128 241.591C157.919 241.512 176.132 241.118 180.654 241.174Z" fill="white"/>
<path opacity="0.3" d="M187.846 241.119L196.206 241.423L175.267 273.176H166.47L187.846 241.119Z" fill="white"/>
<path d="M285.001 342.568C286.068 326.048 284.665 309.461 280.838 293.357C280.666 292.641 280.657 291.896 280.812 291.176C280.968 290.456 281.283 289.78 281.735 289.2C282.187 288.619 282.764 288.148 283.423 287.822C284.082 287.496 284.805 287.324 285.54 287.317L322.447 286.912L289.479 289.657C288.804 289.714 288.149 289.911 287.554 290.235C286.96 290.559 286.438 291.002 286.023 291.538C285.608 292.074 285.308 292.69 285.141 293.348C284.975 294.005 284.947 294.69 285.058 295.359C286.584 304.088 288.749 322.625 285.001 342.568Z" fill="#525252"/>
<path d="M29.9505 309.734C33.0862 309.734 35.6281 307.185 35.6281 304.042C35.6281 300.899 33.0862 298.351 29.9505 298.351C26.8149 298.351 24.2729 300.899 24.2729 304.042C24.2729 307.185 26.8149 309.734 29.9505 309.734Z" fill="white"/>
<path d="M190.999 313.331C194.457 313.331 197.26 310.521 197.26 307.055C197.26 303.588 194.457 300.778 190.999 300.778C187.541 300.778 184.738 303.588 184.738 307.055C184.738 310.521 187.541 313.331 190.999 313.331Z" fill="white"/>
<path d="M175.693 317.865C178.81 317.865 181.337 315.332 181.337 312.208C181.337 309.083 178.81 306.55 175.693 306.55C172.576 306.55 170.049 309.083 170.049 312.208C170.049 315.332 172.576 317.865 175.693 317.865Z" fill="white"/>
<path d="M36.7282 319.282C39.6408 319.282 42.0019 316.915 42.0019 313.996C42.0019 311.076 39.6408 308.709 36.7282 308.709C33.8157 308.709 31.4546 311.076 31.4546 313.996C31.4546 316.915 33.8157 319.282 36.7282 319.282Z" fill="white"/>
<path d="M178.297 355.053C178.627 356.286 179.336 357.384 180.322 358.192C181.309 358.999 182.524 359.475 183.796 359.552C189.328 359.811 198.619 359.417 205.016 359.068C206.987 358.963 208.845 358.111 210.214 356.685C211.582 355.259 212.359 353.364 212.388 351.386C212.5 343.512 211.546 332.039 205.004 331.814C198.137 331.589 178.275 333.141 166.582 334.131C165.958 334.197 165.368 334.448 164.888 334.853C164.408 335.258 164.06 335.798 163.888 336.403C163.717 337.008 163.73 337.651 163.926 338.248C164.122 338.846 164.492 339.37 164.989 339.755C170.218 343.681 176.614 349.417 178.297 355.053Z" fill="#202020"/>
<path d="M47.3998 340.025C43.8763 342.724 38.2096 347.73 35.7409 353.612C35.5862 353.991 35.3419 354.326 35.0292 354.588C34.7164 354.851 34.3446 355.033 33.9458 355.12C33.547 355.206 33.1332 355.194 32.7402 355.084C32.3472 354.974 31.9867 354.77 31.69 354.49C28.0094 350.958 22.4884 344.198 24.2165 336.751C26.27 327.809 40.1172 332.196 47.0183 335.784C47.3954 335.978 47.7173 336.265 47.9543 336.617C48.1912 336.969 48.3354 337.376 48.3735 337.799C48.4116 338.222 48.3423 338.648 48.172 339.037C48.0018 339.426 47.7362 339.766 47.3998 340.025Z" fill="#202020"/>
<path d="M249.698 273.739C249.782 271.924 250.385 270.172 251.436 268.692C252.487 267.212 253.94 266.067 255.623 265.393C261.503 263.03 268.584 267.991 268.584 267.991C268.584 267.991 262.221 265.876 257.52 267.417C252.818 268.958 249.878 272.513 249.698 273.739Z" fill="#474747"/>
<path d="M134.545 239.6C134.368 239.61 134.192 239.555 134.052 239.446C133.911 239.337 133.814 239.181 133.778 239.006C133.743 238.832 133.772 238.65 133.859 238.495C133.946 238.339 134.086 238.22 134.254 238.16C142.984 235.404 163.092 230.669 198.215 230.725C236.368 230.793 245.255 232.626 262.177 236.743C262.251 236.763 262.315 236.81 262.357 236.874C262.399 236.938 262.416 237.016 262.405 237.092C262.394 237.168 262.355 237.237 262.297 237.287C262.238 237.337 262.164 237.363 262.087 237.361C256.005 236.889 244.93 236.574 234.808 239.184C233.547 239.522 232.238 239.644 230.937 239.544C198.855 237.021 166.624 237.04 134.545 239.6Z" fill="#525252"/>
<path d="M316.107 247.912C316.107 247.912 315.804 246.934 290.657 245.517C265.51 244.099 259.136 242.974 259.136 242.974H277.932L311.506 242.21C312.142 242.197 312.768 242.376 313.302 242.723C313.836 243.069 314.254 243.568 314.502 244.156L316.107 247.912Z" fill="#525252"/>
<path d="M63.2563 147.805L76.7107 156.691L166.897 120.663L134.13 100.293L63.2563 147.805Z" fill="#5E87E2"/>
<path d="M135.925 119.56C134.65 121.555 132.701 123.023 130.434 123.694C128.167 124.366 125.734 124.196 123.582 123.216L106.043 115.207L119.509 94.1729L134.096 106.805C135.88 108.355 137.047 110.498 137.383 112.84C137.719 115.183 137.201 117.569 135.925 119.56Z" fill="#E5E7EC"/>
<path d="M119.225 108.834C122.94 103.023 123.058 96.4541 119.489 94.1618C115.92 91.8695 110.016 94.7219 106.301 100.533C102.586 106.344 102.468 112.913 106.037 115.205C109.606 117.498 115.511 114.645 119.225 108.834Z" fill="#5E87E2"/>
<path d="M298.926 92.3183C297.524 103.229 289.108 144.847 289.108 144.847H265.543L254.041 121.788C254.041 121.788 272.747 104.039 282.655 87.7065C286.145 81.9475 289.388 79.4729 292.014 79.1579C294.976 78.7868 297.221 81.1151 298.332 84.5795C299.085 87.0858 299.288 89.7259 298.926 92.3183Z" fill="#E5E7EC"/>
<path d="M298.287 84.5808C298.287 84.5808 287.099 128.246 266.059 128.246C262.793 128.288 259.544 127.767 256.454 126.705L254.041 121.79C254.041 121.79 272.747 104.04 282.655 87.7078C286.145 81.9487 289.388 79.4741 292.014 79.1592L298.287 84.5808Z" fill="white"/>
<path d="M292.778 87.0875C292.498 92.2115 291.747 97.2985 290.533 102.284C287.403 115.073 277.943 129.74 267.889 131.439C264.197 132.058 260.965 130.854 258.283 129.898L255.826 124.971C255.826 124.971 274.532 107.222 284.44 90.8894C287.93 85.1304 291.173 82.6558 293.799 82.3408L292.778 87.0875Z" fill="#5E87E2"/>
<path d="M292.744 158.817C269.908 158.918 237.019 142.71 166.335 110.202C79.9197 70.4628 48.1296 47.2579 57.1067 33.7602C57.618 32.9595 58.2001 32.2066 58.846 31.5105C68.4178 21.3872 85.9119 29.9583 85.9119 29.9583L275.687 133.441C294.517 144.79 294.18 154.52 292.744 158.817Z" fill="white"/>
<path d="M276.484 96.6151C276.484 96.6151 283.217 90.991 288.94 93.2407C294.663 95.4903 286.988 111.958 286.988 111.958L289.86 117.143L299.679 82.7012L280.603 90.2937L276.484 96.6151Z" fill="#97ADDB"/>
<path d="M287.29 158.828L286.729 160.38C263.894 160.481 236.233 145.679 165.538 113.138C79.1341 73.3872 47.344 50.1485 56.3211 36.6508C56.8323 35.8501 57.4145 35.0972 58.0604 34.4012C67.6322 24.2778 85.1263 32.8489 85.1263 32.8489L274.902 136.332C293.765 147.749 288.726 154.531 287.29 158.828Z" fill="#5E87E2"/>
<path d="M74.7912 40.0927C76.4954 40.0927 77.8769 38.7078 77.8769 36.9995C77.8769 35.2911 76.4954 33.9062 74.7912 33.9062C73.0871 33.9062 71.7056 35.2911 71.7056 36.9995C71.7056 38.7078 73.0871 40.0927 74.7912 40.0927Z" fill="white"/>
<path d="M85.3278 45.705C87.032 45.705 88.4135 44.3201 88.4135 42.6118C88.4135 40.9034 87.032 39.5186 85.3278 39.5186C83.6237 39.5186 82.2422 40.9034 82.2422 42.6118C82.2422 44.3201 83.6237 45.705 85.3278 45.705Z" fill="white"/>
<path d="M95.8537 51.3173C97.5579 51.3173 98.9394 49.9324 98.9394 48.2241C98.9394 46.5157 97.5579 45.1309 95.8537 45.1309C94.1496 45.1309 92.7681 46.5157 92.7681 48.2241C92.7681 49.9324 94.1496 51.3173 95.8537 51.3173Z" fill="white"/>
<path d="M106.38 56.9316C108.084 56.9316 109.465 55.5467 109.465 53.8384C109.465 52.13 108.084 50.7451 106.38 50.7451C104.675 50.7451 103.294 52.13 103.294 53.8384C103.294 55.5467 104.675 56.9316 106.38 56.9316Z" fill="white"/>
<path d="M116.905 62.5439C118.609 62.5439 119.991 61.159 119.991 59.4507C119.991 57.7423 118.609 56.3574 116.905 56.3574C115.201 56.3574 113.819 57.7423 113.819 59.4507C113.819 61.159 115.201 62.5439 116.905 62.5439Z" fill="white"/>
<path d="M127.43 68.1562C129.135 68.1562 130.516 66.7713 130.516 65.063C130.516 63.3546 129.135 61.9697 127.43 61.9697C125.726 61.9697 124.345 63.3546 124.345 65.063C124.345 66.7713 125.726 68.1562 127.43 68.1562Z" fill="white"/>
<path d="M137.967 73.7812C139.672 73.7812 141.053 72.3963 141.053 70.688C141.053 68.9796 139.672 67.5947 137.967 67.5947C136.263 67.5947 134.882 68.9796 134.882 70.688C134.882 72.3963 136.263 73.7812 137.967 73.7812Z" fill="white"/>
<path d="M148.493 79.3945C150.197 79.3945 151.579 78.0096 151.579 76.3012C151.579 74.5929 150.197 73.208 148.493 73.208C146.789 73.208 145.407 74.5929 145.407 76.3012C145.407 78.0096 146.789 79.3945 148.493 79.3945Z" fill="white"/>
<path d="M159.019 85.0068C160.723 85.0068 162.104 83.6219 162.104 81.9135C162.104 80.2052 160.723 78.8203 159.019 78.8203C157.315 78.8203 155.933 80.2052 155.933 81.9135C155.933 83.6219 157.315 85.0068 159.019 85.0068Z" fill="white"/>
<path d="M169.544 90.6191C171.248 90.6191 172.63 89.2342 172.63 87.5259C172.63 85.8175 171.248 84.4326 169.544 84.4326C167.84 84.4326 166.458 85.8175 166.458 87.5259C166.458 89.2342 167.84 90.6191 169.544 90.6191Z" fill="white"/>
<path d="M180.081 96.2324C181.785 96.2324 183.167 94.8475 183.167 93.1391C183.167 91.4308 181.785 90.0459 180.081 90.0459C178.377 90.0459 176.996 91.4308 176.996 93.1391C176.996 94.8475 178.377 96.2324 180.081 96.2324Z" fill="white"/>
<path d="M190.607 101.845C192.311 101.845 193.693 100.46 193.693 98.7514C193.693 97.0431 192.311 95.6582 190.607 95.6582C188.903 95.6582 187.521 97.0431 187.521 98.7514C187.521 100.46 188.903 101.845 190.607 101.845Z" fill="white"/>
<path d="M201.133 107.459C202.837 107.459 204.218 106.074 204.218 104.366C204.218 102.657 202.837 101.272 201.133 101.272C199.428 101.272 198.047 102.657 198.047 104.366C198.047 106.074 199.428 107.459 201.133 107.459Z" fill="white"/>
<path d="M211.658 113.071C213.362 113.071 214.744 111.686 214.744 109.978C214.744 108.27 213.362 106.885 211.658 106.885C209.954 106.885 208.572 108.27 208.572 109.978C208.572 111.686 209.954 113.071 211.658 113.071Z" fill="white"/>
<path d="M222.184 118.684C223.888 118.684 225.269 117.299 225.269 115.59C225.269 113.882 223.888 112.497 222.184 112.497C220.48 112.497 219.098 113.882 219.098 115.59C219.098 117.299 220.48 118.684 222.184 118.684Z" fill="white"/>
<path d="M232.72 124.308C234.425 124.308 235.806 122.923 235.806 121.214C235.806 119.506 234.425 118.121 232.72 118.121C231.016 118.121 229.635 119.506 229.635 121.214C229.635 122.923 231.016 124.308 232.72 124.308Z" fill="white"/>
<path d="M243.246 129.921C244.95 129.921 246.331 128.536 246.331 126.828C246.331 125.119 244.95 123.734 243.246 123.734C241.542 123.734 240.16 125.119 240.16 126.828C240.16 128.536 241.542 129.921 243.246 129.921Z" fill="white"/>
<path d="M253.772 135.532C255.476 135.532 256.858 134.147 256.858 132.439C256.858 130.731 255.476 129.346 253.772 129.346C252.068 129.346 250.687 130.731 250.687 132.439C250.687 134.147 252.068 135.532 253.772 135.532Z" fill="white"/>
<path d="M231.835 121.135C231.835 121.135 224.372 116.636 222.162 113.104C219.783 109.302 222.824 106.501 228.334 107.604L219.749 102.913L206.115 107.412L231.835 121.135Z" fill="#97ADDB"/>
<path d="M113.693 105.446C116.212 101.845 117.111 98.1225 115.7 97.131C114.29 96.1395 111.104 98.2549 108.585 101.856C106.066 105.457 105.167 109.18 106.577 110.171C107.988 111.163 111.174 109.047 113.693 105.446Z" fill="white"/>
<path d="M246.445 154.272L230.454 166.702L239.016 172.326L276.742 157.928L246.445 154.272Z" fill="#5E87E2"/>
<path d="M292.744 158.817C292.494 159.523 292.081 160.16 291.539 160.676C290.997 161.192 290.341 161.573 289.625 161.787C265.813 169.244 235.201 153.643 151.153 114.983C64.7488 75.2435 32.9587 51.9936 41.9358 38.4958C46.2224 32.0506 52.9776 30.9033 58.8688 31.4657C62.9763 31.9156 66.9848 33.0246 70.741 34.7502C70.741 34.7502 248.431 130.078 252.403 132.136C256.376 134.195 263.344 136.726 265.869 133.531C268.394 130.337 260.157 124.938 260.157 124.938L275.688 133.408C294.517 144.791 294.181 154.52 292.744 158.817Z" fill="#E5E7EC"/>
<path d="M357.345 73.2189L353.664 74.0963L208.83 108.763L195.455 102.239L194.781 101.902V76.4246L343.172 63.793L357.345 73.2189Z" fill="white"/>
<path d="M353.664 74.0957L208.83 108.762L195.455 102.239V80.2034L343.835 67.5605L353.664 74.0957Z" fill="#5E87E2"/>
<path d="M208.808 97.7611C207.352 100.02 205.136 101.68 202.562 102.442C199.989 103.203 197.229 103.015 194.782 101.912L174.853 92.8119L190.136 68.9209L206.71 83.251C208.733 85.0185 210.057 87.4542 210.442 90.1163C210.827 92.7783 210.247 95.4906 208.808 97.7611Z" fill="#E5E7EC"/>
<path d="M189.825 85.5679C194.044 78.9671 194.178 71.5052 190.124 68.9012C186.069 66.2972 179.362 69.5372 175.143 76.138C170.923 82.7388 170.79 90.2008 174.844 92.8048C178.898 95.4087 185.605 92.1687 189.825 85.5679Z" fill="#5E87E2"/>
<path d="M183.571 81.5478C186.239 77.3739 187.078 73.14 185.445 72.091C183.812 71.0421 180.325 73.5753 177.657 77.7492C174.989 81.923 174.15 86.157 175.783 87.206C177.416 88.2549 180.903 85.7217 183.571 81.5478Z" fill="white"/>
<path d="M352.722 137.243L296.772 152.99C293.842 153.815 290.71 153.519 287.986 152.158C287.321 151.848 286.69 151.471 286.101 151.033L274.7 142.552C274.259 142.222 273.928 141.767 273.75 141.245C273.571 140.724 273.554 140.161 273.699 139.629C273.844 139.097 274.146 138.622 274.565 138.265C274.983 137.907 275.5 137.685 276.046 137.626L342.847 130.753L345.776 132.676L352.722 137.243Z" fill="white"/>
<path d="M352.722 137.244L296.369 152.991C293.416 153.816 290.263 153.52 287.515 152.159L277.09 144.442C276.642 144.117 276.304 143.661 276.121 143.138C275.938 142.614 275.92 142.047 276.067 141.512C276.215 140.978 276.522 140.501 276.948 140.146C277.373 139.791 277.897 139.575 278.448 139.527L345.776 132.654L352.722 137.244Z" fill="#5E87E2"/>
<path d="M375.007 206.014H363.966V223.122H375.007V206.014Z" fill="#FFB171"/>
<path d="M361.16 219.229L363.752 217.823L372.595 220.703L376.174 217.823L377.858 218.521L381.078 247.271L375.007 251.916L361.16 219.229Z" fill="#5086FE"/>
<path d="M372.595 220.704L369.644 224.708L372.595 227.104L373.223 250.017L378.205 254.516L381.077 238.634L377.801 236.519L374.625 226.744L376.241 224.36L372.595 220.704Z" fill="#474747"/>
<path d="M375.007 206.014V216.339C374.362 216.485 373.704 216.557 373.043 216.553C368.252 216.553 364.392 213.032 364.392 208.679V208.466C364.257 208.559 364.114 208.642 363.966 208.713V206.014H375.007Z" fill="#FF621F"/>
<path d="M365.368 192.087H381.078V207.553C381.078 209.641 380.251 211.644 378.777 213.121C377.304 214.597 375.306 215.427 373.223 215.427C371.14 215.427 369.142 214.597 367.669 213.121C366.196 211.644 365.368 209.641 365.368 207.553V192.087Z" fill="#FFB171"/>
<path d="M365.773 201.886C365.773 201.886 365.458 194.012 375.558 194.012C385.657 194.012 387.441 183.697 379.205 181.358C370.968 179.018 368.915 186.194 364.897 186.509C357.884 187.072 356.571 192.673 361.621 201.222L365.773 201.886Z" fill="#232323"/>
<path d="M363.191 208.072C365.193 208.072 366.815 206.445 366.815 204.439C366.815 202.432 365.193 200.806 363.191 200.806C361.189 200.806 359.567 202.432 359.567 204.439C359.567 206.445 361.189 208.072 363.191 208.072Z" fill="#FFB171"/>
<path d="M350.13 224.708C350.13 224.708 359.107 233.898 353.114 249.083C347.122 264.268 342.454 267.642 340.21 267.642C337.966 267.642 321.515 253.953 321.515 253.953C323.284 250.626 323.937 246.816 323.378 243.087C323.378 243.087 334.229 248.891 337.225 253.02C337.225 253.02 345.45 225.653 350.13 224.708Z" fill="#474747"/>
<path d="M387.553 293.107L392.019 377.311H387.553L365.032 291.071L387.553 293.107Z" fill="#202020"/>
<path d="M377.05 296.269L376.365 299.509L360.038 377.312H355.18C355.18 377.312 350.422 348.618 355.022 294.481C355.022 293.862 355.123 293.244 355.18 292.625L367.523 287.698L377.05 296.269Z" fill="#474747"/>
<path d="M377.05 296.269L376.365 299.509C371.069 299.869 364.089 299.093 355.18 295.808C355.18 295.808 355.112 295.324 355.022 294.481C355.022 293.862 355.123 293.244 355.18 292.625L367.523 287.698L377.05 296.269Z" fill="#202020"/>
<path d="M387.104 276.314L390.055 291.207C390.055 291.207 380.326 301.893 355.179 292.624C354.466 287.113 354.466 281.533 355.179 276.022C356.391 267.642 354.977 254.088 352.464 250.714C349.95 247.339 350.13 224.708 350.13 224.708L356.447 221.57L361.16 219.219C361.16 219.219 370.194 230.568 374.862 240.59L375.097 241.108C375.266 241.479 375.423 241.861 375.591 242.233C376.042 243.284 376.439 244.358 376.78 245.449C376.87 245.708 376.938 245.944 377.005 246.192C377.005 246.192 378.935 227.171 378.004 219.5C378.004 219.163 377.914 218.836 377.858 218.544H378.105C379.96 218.875 381.779 219.388 383.536 220.074C384.865 220.573 386.079 221.338 387.104 222.323C389.775 225.135 399.448 252.266 399.874 257.462C400.3 262.659 390.942 274.2 387.104 276.314Z" fill="#474747"/>
<path d="M363.123 377.312H351.902V380.36H363.123V377.312Z" fill="#232323"/>
<path d="M398.751 377.312H387.53V380.36H398.751V377.312Z" fill="#232323"/>
<path d="M325.678 248.015C325.66 248.363 325.612 248.709 325.532 249.049C324.882 252.041 322.716 254.201 320.696 253.864C318.677 253.526 317.588 250.815 318.239 247.812C318.281 247.607 318.333 247.404 318.396 247.205C319.182 244.528 321.19 242.705 323.064 242.987C323.142 242.987 323.176 243.065 323.255 243.088L323.401 243.155C323.45 243.183 323.495 243.217 323.535 243.257C325.005 243.841 325.858 245.709 325.678 248.015Z" fill="#5086FE"/>
<path d="M325.589 248.791C323.591 247.081 319.069 246.767 317.599 246.823H316.971C316.971 246.823 309.61 246.958 309.61 245.484C309.61 244.011 314.457 243.864 314.457 243.864L313.661 242.11H303.932C307.018 239.511 316.275 239.365 316.275 239.365L322.929 242.841L323.109 242.931H323.176C325.533 244.101 326.038 246.35 325.589 248.791Z" fill="#FFB171"/>
<path d="M380.517 233.054C380.798 235.866 382.952 237.272 382.851 238.487C382.75 239.702 377.341 245.146 376.87 247.856C376.87 247.856 368.824 240.59 366.771 239.398C364.717 238.206 367.096 235.483 366.771 232.863C366.502 230.681 358.916 223.864 356.402 221.615L361.115 219.264C361.115 219.264 370.149 230.613 374.817 240.635L375.052 241.153C375.221 241.524 375.378 241.906 375.546 242.277C375.995 243.402 376.399 244.448 376.735 245.494C376.735 245.033 378.071 230.872 377.959 219.556C377.959 219.264 377.959 218.982 377.959 218.69L378.071 218.634C379.927 218.965 381.746 219.478 383.502 220.164L383.76 220.85C383.76 220.85 380.236 230.242 380.517 233.054Z" fill="#202020"/>
<path d="M361.767 279.544C362.047 279.055 362.43 278.633 362.889 278.307C363.278 278.021 363.715 277.808 364.179 277.677C364.64 277.535 365.123 277.477 365.604 277.508C366.167 277.53 366.716 277.684 367.209 277.958C366.929 278.45 366.546 278.876 366.087 279.207C365.695 279.486 365.259 279.696 364.796 279.825C364.334 279.962 363.852 280.019 363.371 279.994C362.81 279.965 362.262 279.811 361.767 279.544Z" fill="#202020"/>
<path d="M382.391 277.012C382.841 276.772 383.34 276.641 383.85 276.63C384.267 276.615 384.683 276.684 385.073 276.832C385.485 276.975 385.867 277.196 386.195 277.485C386.565 277.834 386.85 278.266 387.025 278.744C386.58 278.998 386.078 279.133 385.567 279.138C385.149 279.152 384.734 279.084 384.343 278.936C383.908 278.771 383.513 278.514 383.186 278.182C382.858 277.85 382.606 277.451 382.447 277.012H382.391Z" fill="#202020"/>
<path d="M376.87 247.868C377.667 251.794 378.216 255.742 378.643 259.724C379.069 263.706 379.361 267.676 379.574 271.658C379.787 275.64 379.821 279.644 379.675 283.648C379.639 287.667 379.138 291.668 378.183 295.571C378.34 291.578 378.082 287.63 377.925 283.66L377.33 271.759C377.173 267.789 376.982 263.818 376.904 259.836C376.825 255.854 376.747 251.872 376.87 247.868Z" fill="#202020"/>
<path d="M385.993 234.551C386.06 238.139 386.049 241.682 385.993 245.225C385.937 248.768 385.915 252.312 385.993 255.832C385.993 257.598 385.993 259.364 386.049 261.13V263.773C386.105 264.651 386.128 265.528 386.15 266.417C386.307 269.937 386.532 273.447 386.924 277.012C385.681 273.643 384.834 270.14 384.4 266.574C383.95 263.015 383.718 259.431 383.704 255.843C383.7 252.267 383.876 248.694 384.232 245.135C384.572 241.57 385.161 238.033 385.993 234.551Z" fill="#202020"/>
<path d="M399.919 72.3085L397.674 80.1822L394.667 81.1833L402.163 56.0887L405.664 54.9639L413.384 74.9293L410.287 75.9641L407.852 69.6652L399.919 72.3085ZM407.269 67.5843L405.024 61.8252C404.563 60.606 404.166 59.3632 403.835 58.1021H403.767C403.442 59.5419 403.083 61.0379 402.645 62.6013L400.48 69.8564L407.269 67.5843Z" fill="#DAE3F0"/>
<path d="M420.835 49.8789L420.959 72.3752L418.064 73.3313L417.94 50.835L420.835 49.8789Z" fill="#DAE3F0"/>
<path d="M427.232 48.0558C429.038 47.1355 430.915 46.3607 432.843 45.7386C435.94 44.7151 437.938 44.6138 439.352 45.4237C439.954 45.8222 440.438 46.3765 440.752 47.0278C441.066 47.6792 441.198 48.4036 441.136 49.1243C441.071 50.565 440.656 51.9681 439.927 53.2111C439.197 54.4541 438.175 55.4993 436.95 56.2556V56.3569C438.689 56.3569 439.733 57.6504 440.317 59.81C440.702 61.7437 441.297 63.6295 442.089 65.4341L439.082 66.4352C438.39 64.8674 437.878 63.2259 437.556 61.5423C436.872 58.6515 435.671 57.8866 433.068 58.6515L430.217 59.6301L430.273 69.4047L427.367 70.3608L427.232 48.0558ZM430.217 57.3805L433.18 56.3906C436.277 55.367 438.229 53.0162 438.218 50.4291C438.218 47.5158 436.097 46.9422 433.034 47.932C432.037 48.2353 431.074 48.6425 430.161 49.1468L430.217 57.3805Z" fill="#DAE3F0"/>
<path d="M446.487 41.6338C448.302 40.7516 450.177 39.9998 452.098 39.3842C454.959 38.4281 457.068 38.4056 458.403 39.1705C459.08 39.5948 459.624 40.1994 459.977 40.9165C460.33 41.6337 460.477 42.4351 460.401 43.231C460.433 45.1653 459.834 47.0573 458.695 48.6189C456.963 50.8854 454.565 52.5496 451.839 53.3768C451.086 53.6572 450.303 53.8497 449.506 53.9505L449.562 62.949L446.667 63.9163L446.487 41.6338ZM449.45 51.5434C450.269 51.4497 451.075 51.2609 451.851 50.981C455.352 49.8562 457.461 47.4041 457.461 44.2321C457.461 41.0601 455.34 40.5202 452.142 41.5776C451.199 41.8627 450.286 42.2394 449.416 42.7024L449.45 51.5434Z" fill="#DAE3F0"/>
<path d="M484.797 39.7091C484.797 47.4703 480.174 53.1394 474.44 55.0403C468.515 57.0087 464.34 53.7805 464.284 46.9529C464.284 39.7991 468.649 33.6351 474.641 31.6442C480.634 29.6533 484.763 33.0165 484.797 39.7091ZM467.381 45.8618C467.381 50.676 470.03 54.1292 474.597 52.6107C479.164 51.0922 481.767 45.9743 481.733 40.8564C481.733 36.3572 479.354 32.4653 474.518 34.1075C469.682 35.7498 467.348 40.9014 467.381 45.8618Z" fill="#DAE3F0"/>
<path d="M489.836 27.2699C491.642 26.3537 493.518 25.5826 495.447 24.964C498.544 23.9292 500.552 23.8392 501.955 24.6378C502.559 25.0346 503.044 25.5885 503.359 26.2403C503.673 26.8922 503.804 27.6174 503.739 28.3384C503.679 29.786 503.265 31.1965 502.533 32.4459C501.801 33.6953 500.774 34.7453 499.542 35.5035V35.5935C501.282 35.5935 502.325 36.887 502.909 39.0579C503.289 40.9916 503.88 42.8776 504.671 44.682L501.674 45.6718C500.974 44.1101 500.458 42.4718 500.137 40.7901C499.464 37.8993 498.252 37.1232 495.649 37.8993L492.911 38.7992L492.967 48.5738L490.072 49.5299L489.836 27.2699ZM492.798 36.5833L495.761 35.6047C498.858 34.5699 500.822 32.2303 500.799 29.632C500.799 26.73 498.678 26.1563 495.615 27.1349C494.622 27.4404 493.663 27.8474 492.753 28.3497L492.798 36.5833Z" fill="#DAE3F0"/>
<path d="M513.67 21.5441L506.847 23.7937V21.3866L523.466 15.875V18.3496L516.61 20.5992L516.722 40.6771L513.793 41.6445L513.67 21.5441Z" fill="#DAE3F0"/>
<path d="M211.303 197.054C215.71 191.408 208.782 178.595 195.828 168.436C182.874 158.276 168.8 154.617 164.393 160.263C159.986 165.909 166.914 178.722 179.868 188.882C192.822 199.041 206.896 202.7 211.303 197.054Z" fill="white"/>
<path d="M308.64 213.357C310.657 209.855 305.775 203.243 297.735 198.59C289.695 193.938 281.542 193.005 279.525 196.507C277.507 200.009 282.39 206.621 290.43 211.273C298.469 215.926 306.622 216.859 308.64 213.357Z" fill="white"/>
<path d="M344.521 113.919C345.922 111.487 342.537 106.899 336.961 103.672C331.384 100.445 325.728 99.8 324.328 102.232C322.927 104.663 326.312 109.251 331.888 112.478C337.465 115.705 343.121 116.35 344.521 113.919Z" fill="white"/>
<path d="M348.434 174.653C349.835 172.221 346.45 167.634 340.873 164.407C335.297 161.179 329.641 160.534 328.24 162.966C326.84 165.398 330.225 169.985 335.801 173.213C341.377 176.44 347.033 177.085 348.434 174.653Z" fill="white"/>
<path d="M274.544 55.8998C276.561 52.3975 271.679 45.7864 263.639 41.1334C255.599 36.4805 247.446 35.5478 245.429 39.0501C243.412 42.5524 248.294 49.1635 256.334 53.8164C264.374 58.4694 272.527 59.4021 274.544 55.8998Z" fill="white"/>
<path d="M130.465 215.772C132.802 212.476 128.562 205.434 120.994 200.043C113.427 194.652 105.398 192.954 103.061 196.251C100.724 199.547 104.964 206.59 112.531 211.98C120.098 217.371 128.128 219.069 130.465 215.772Z" fill="#ECF2FF"/>
<path d="M341.658 412C360.083 412 375.019 409.915 375.019 407.343C375.019 404.771 360.083 402.687 341.658 402.687C323.233 402.687 308.297 404.771 308.297 407.343C308.297 409.915 323.233 412 341.658 412Z" fill="#ECF2FF"/>
<path d="M87.853 412C102.448 412 114.279 409.915 114.279 407.343C114.279 404.771 102.448 402.687 87.853 402.687C73.2582 402.687 61.4268 404.771 61.4268 407.343C61.4268 409.915 73.2582 412 87.853 412Z" fill="#ECF2FF"/>
<path d="M37.7471 226.823C39.0914 225.229 35.4851 219.957 29.6923 215.048C23.8995 210.139 18.1137 207.451 16.7695 209.045C15.4252 210.639 19.0315 215.911 24.8243 220.82C30.6171 225.729 36.4028 228.417 37.7471 226.823Z" fill="#ECF2FF"/>
<path d="M26.0687 285.831C27.4129 284.237 25.5755 280.464 21.9646 277.404C18.3537 274.344 14.3368 273.155 12.9925 274.749C11.6483 276.344 13.4858 280.116 17.0967 283.176C20.7076 286.236 24.7245 287.425 26.0687 285.831Z" fill="#ECF2FF"/>
<path d="M83.4468 112.358C86.9829 107.371 82.2653 97.9245 72.9096 91.2599C63.554 84.5953 53.1031 83.236 49.5669 88.2237C46.0307 93.2115 50.7483 102.658 60.104 109.322C69.4597 115.987 79.9106 117.346 83.4468 112.358Z" fill="#ECF2FF"/>
<path d="M195.444 39.4779C197.462 35.9756 192.579 29.3645 184.539 24.7116C176.499 20.0587 168.347 19.1259 166.329 22.6282C164.312 26.1305 169.194 32.7417 177.234 37.3946C185.274 42.0475 193.427 42.9802 195.444 39.4779Z" fill="#ECF2FF"/>
<path d="M341.554 44.1784C343.571 40.6761 335.965 32.4888 324.565 25.8914C313.166 19.2941 302.289 16.7851 300.272 20.2874C298.254 23.7897 305.86 31.9771 317.26 38.5744C328.66 45.1717 339.536 47.6807 341.554 44.1784Z" fill="#ECF2FF"/>
<path d="M134.219 160.38C136.425 160.38 138.214 158.587 138.214 156.375C138.214 154.164 136.425 152.371 134.219 152.371C132.013 152.371 130.225 154.164 130.225 156.375C130.225 158.587 132.013 160.38 134.219 160.38Z" stroke="white" stroke-miterlimit="10"/>
<path d="M247.948 210.604C251.983 210.604 255.253 207.326 255.253 203.282C255.253 199.237 251.983 195.959 247.948 195.959C243.914 195.959 240.643 199.237 240.643 203.282C240.643 207.326 243.914 210.604 247.948 210.604Z" stroke="white" stroke-miterlimit="10"/>
<path d="M79.5717 227.476C81.7778 227.476 83.5662 225.684 83.5662 223.472C83.5662 221.261 81.7778 219.468 79.5717 219.468C77.3655 219.468 75.5771 221.261 75.5771 223.472C75.5771 225.684 77.3655 227.476 79.5717 227.476Z" stroke="white" stroke-miterlimit="10"/>
<path d="M363.123 106.918C365.33 106.918 367.118 105.125 367.118 102.914C367.118 100.702 365.33 98.9092 363.123 98.9092C360.917 98.9092 359.129 100.702 359.129 102.914C359.129 105.125 360.917 106.918 363.123 106.918Z" stroke="white" stroke-miterlimit="10"/>
<path d="M40.454 144.374C44.4885 144.374 47.7591 141.095 47.7591 137.051C47.7591 133.007 44.4885 129.729 40.454 129.729C36.4195 129.729 33.1489 133.007 33.1489 137.051C33.1489 141.095 36.4195 144.374 40.454 144.374Z" stroke="#ECF2FF" stroke-miterlimit="10"/>
<path d="M132.324 27.5513C136.358 27.5513 139.629 24.2729 139.629 20.2288C139.629 16.1847 136.358 12.9062 132.324 12.9062C128.289 12.9062 125.019 16.1847 125.019 20.2288C125.019 24.2729 128.289 27.5513 132.324 27.5513Z" stroke="#ECF2FF" stroke-miterlimit="10"/>
<path d="M365.369 61.6665C369.403 61.6665 372.674 58.3881 372.674 54.344C372.674 50.2999 369.403 47.0215 365.369 47.0215C361.334 47.0215 358.063 50.2999 358.063 54.344C358.063 58.3881 361.334 61.6665 365.369 61.6665Z" stroke="#ECF2FF" stroke-miterlimit="10"/>
<path d="M6.17266 315.132C9.02944 315.132 11.3453 312.81 11.3453 309.946C11.3453 307.082 9.02944 304.761 6.17266 304.761C3.31588 304.761 1 307.082 1 309.946C1 312.81 3.31588 315.132 6.17266 315.132Z" stroke="#ECF2FF" stroke-miterlimit="10"/>
<path d="M85.5413 183.823C88.3981 183.823 90.714 181.501 90.714 178.638C90.714 175.774 88.3981 173.452 85.5413 173.452C82.6845 173.452 80.3687 175.774 80.3687 178.638C80.3687 181.501 82.6845 183.823 85.5413 183.823Z" stroke="#ECF2FF" stroke-miterlimit="10"/>
</svg>
